<svg width="1200" height="800" xmlns="http://www.w3.org/2000/svg">
  <rect width="1200" height="800" fill="#F8FAFC"/>
  <!-- Phone mockup -->
  <rect x="450" y="100" width="300" height="600" rx="30" fill="#1E293B" stroke="#64748B" stroke-width="3"/>
  <rect x="470" y="130" width="260" height="540" fill="#0F172A"/>
  <!-- Screen content -->
  <rect x="480" y="150" width="240" height="60" fill="#2563EB" rx="10"/>
  <text x="600" y="185" font-family="Inter, Arial" font-size="24" fill="#FFFFFF" text-anchor="middle" font-weight="700">RentaOK</text>
  <!-- Payment items -->
  <rect x="490" y="230" width="220" height="70" fill="#1E293B" rx="8"/>
  <circle cx="520" cy="265" r="15" fill="#10B981"/>
  <path d="M 515 265 L 520 270 L 528 260" stroke="#FFFFFF" stroke-width="2" fill="none"/>
  <text x="550" y="260" font-family="Inter, Arial" font-size="14" fill="#FFFFFF" font-weight="500">Pago registrado</text>
  <text x="550" y="280" font-family="Inter, Arial" font-size="12" fill="#64748B">04-02-2026</text>
  
  <rect x="490" y="320" width="220" height="70" fill="#1E293B" rx="8"/>
  <circle cx="520" cy="355" r="15" fill="#10B981"/>
  <path d="M 515 355 L 520 360 L 528 350" stroke="#FFFFFF" stroke-width="2" fill="none"/>
  <text x="550" y="350" font-family="Inter, Arial" font-size="14" fill="#FFFFFF" font-weight="500">Pago registrado</text>
  <text x="550" y="370" font-family="Inter, Arial" font-size="12" fill="#64748B">04-01-2026</text>
  
  <!-- Diagram elements -->
  <circle cx="150" cy="400" r="60" fill="#E0F2FE" stroke="#2563EB" stroke-width="3"/>
  <text x="150" y="410" font-family="Inter, Arial" font-size="16" fill="#2563EB" text-anchor="middle" font-weight="600">Locador/a</text>
  
  <circle cx="1050" cy="400" r="60" fill="#D1FAE5" stroke="#10B981" stroke-width="3"/>
  <text x="1050" y="410" font-family="Inter, Arial" font-size="16" fill="#059669" text-anchor="middle" font-weight="600">Locatario/a</text>
  
  <!-- Connecting lines -->
  <line x1="210" y1="400" x2="450" y2="400" stroke="#2563EB" stroke-width="2" stroke-dasharray="5,5"/>
  <line x1="750" y1="400" x2="990" y2="400" stroke="#10B981" stroke-width="2" stroke-dasharray="5,5"/>
  
  <text x="600" y="740" font-family="Inter, Arial" font-size="28" fill="#0F172A" text-anchor="middle" font-weight="700">Comunicación Formal y Trazabilidad</text>
</svg>
